Vicky Donor - 2012 - DVDScr - 720p - x264 - DrC - D!D

Screenshots :
 
http://i.imgur.com/wseSj.png 
http://i.imgur.com/c8PNx.png 
http://i.imgur.com/VcHXJ.jpg 
http://i.imgur.com/fpCvG.jpg 
http://i.imgur.com/vLzJH.png 
http://i.imgur.com/lpGAS.jpg

Info :

        General

        Format                                   : Matroska
        Format version                           : Version 2
        File size                                : 1.65 GiB
        Duration                                 : 2h 1mn
        Overall bit rate mode                    : Variable
        Overall bit rate                         : 1 949 Kbps


        Video

        Format                                   : AVC
        Format/Info                              : Advanced Video Codec
        Format profile                           : High@L4.1
        Format settings, CABAC                   : Yes
        Format settings, ReFrames                : 3 frames
        Codec ID                                 : V_MPEG4/ISO/AVC
        Duration                                 : 2h 1mn
        Bit rate mode                            : Variable
        Bit rate                                 : 1 499 Kbps
        Maximum bit rate                         : 40.0 Mbps
        Width                                    : 1 280 pixels
        Height                                   : 544 pixels
        Display aspect ratio                     : 2.35:1
        Frame rate                               : 23.976 fps
        Color space                              : YUV
        Chroma subsampling                       : 4:2:0
        Bit depth                                : 8 bits
        Scan type                                : Progressive
        Bits/(Pixel*Frame)                       : 0.090
        Stream size                              : 1.24 GiB (75%)


        Audio

        Format                                   : AC-3
        Format/Info                              : Audio Coding 3
        Mode extension                           : CM (complete main)
        Format settings, Endianness              : Big
        Codec ID                                 : A_AC3
        Duration                                 : 2h 1mn
        Bit rate mode                            : Constant
        Bit rate                                 : 448 Kbps
        Channel(s)                               : 6 channels
        Channel positions                        : Front: L C R, Side: L R, LFE
        Sampling rate                            : 48.0 KHz
        Bit depth                                : 16 bits
        Compression mode                         : Lossy
        Stream size                              : 388 MiB (23%)


      
















            

